<?xml version="1.0" encoding="iso-8859-1"?>
<!-- Generator: Adobe Illustrator 19.0.0, SVG Export Plug-In . SVG Version: 6.00 Build 0)  -->
<svg version="1.1" id="Layer_1" xmlns="http://www.w3.org/2000/svg" xmlns:xlink="http://www.w3.org/1999/xlink" x="0px" y="0px"
	 viewBox="0 0 512.006 512.006" style="enable-background:new 0 0 512.006 512.006;" xml:space="preserve">
<rect x="240.961" y="21.696" width="30.1" height="82"/>
<rect x="78.327" y="104.267" transform="matrix(0.7071 0.7071 -0.7071 0.7071 119.3201 -49.4295)" width="81.999" height="30.1"/>
<rect x="21.703" y="240.956" width="82" height="30.1"/>
<rect x="104.276" y="351.684" transform="matrix(0.7071 0.7071 -0.7071 0.7071 312.6187 30.6383)" width="30.1" height="81.999"/>
<rect x="240.961" y="408.306" width="30.1" height="82"/>
<rect x="351.694" y="377.641" transform="matrix(0.7071 0.7071 -0.7071 0.7071 392.6914 -162.6601)" width="81.999" height="30.1"/>
<rect x="408.311" y="240.956" width="82" height="30.1"/>
<rect x="377.657" y="78.324" transform="matrix(0.7071 0.7071 -0.7071 0.7071 199.3955 -242.7367)" width="30.1" height="81.999"/>
<rect x="240.961" y="21.696" style="fill:#FF4F19;" width="30.1" height="82"/>
<g>
	
		<rect x="78.327" y="104.267" transform="matrix(0.7071 0.7071 -0.7071 0.7071 119.3201 -49.4295)" style="fill:#FF9575;" width="81.999" height="30.1"/>
	<rect x="21.703" y="240.956" style="fill:#FF9575;" width="82" height="30.1"/>
	
		<rect x="104.276" y="351.684" transform="matrix(0.7071 0.7071 -0.7071 0.7071 312.6187 30.6383)" style="fill:#FF9575;" width="30.1" height="81.999"/>
</g>
<g>
	<rect x="240.961" y="408.306" style="fill:#FF4F19;" width="30.1" height="82"/>
	
		<rect x="351.694" y="377.641" transform="matrix(0.7071 0.7071 -0.7071 0.7071 392.6914 -162.6601)" style="fill:#FF4F19;" width="81.999" height="30.1"/>
	<rect x="408.311" y="240.956" style="fill:#FF4F19;" width="82" height="30.1"/>
	
		<rect x="377.657" y="78.324" transform="matrix(0.7071 0.7071 -0.7071 0.7071 199.3955 -242.7367)" style="fill:#FF4F19;" width="30.1" height="81.999"/>
</g>
<g>
	
		<rect x="133.796" y="17.798" transform="matrix(0.3893 0.9211 -0.9211 0.3893 129.0107 -128.89)" style="fill:#FFE97F;" width="55.823" height="30.1"/>
	
		<rect x="3.616" y="149.85" transform="matrix(0.9266 0.3761 -0.3761 0.9266 64.3327 0.249)" style="fill:#FFE97F;" width="55.826" height="30.101"/>
	
		<rect x="17.816" y="322.408" transform="matrix(0.3893 0.9211 -0.9211 0.3893 342.7538 183.6659)" style="fill:#FFE97F;" width="30.1" height="55.823"/>
	
		<rect x="149.847" y="452.569" transform="matrix(0.9266 0.3761 -0.3761 0.9266 192.8123 -26.7408)" style="fill:#FFE97F;" width="30.101" height="55.826"/>
</g>
<g>
	
		<rect x="322.426" y="464.113" transform="matrix(0.3893 0.9211 -0.9211 0.3893 655.3109 -30.0768)" style="fill:#FFDB2D;" width="55.823" height="30.1"/>
	
		<rect x="452.565" y="332.074" transform="matrix(0.9266 0.3761 -0.3761 0.9266 165.8267 -155.2189)" style="fill:#FFDB2D;" width="55.826" height="30.101"/>
	
		<rect x="464.148" y="133.779" transform="matrix(0.3893 0.9211 -0.9211 0.3893 441.5789 -342.6494)" style="fill:#FFDB2D;" width="30.1" height="55.823"/>
	
		<rect x="332.055" y="3.611" transform="matrix(0.9266 0.3761 -0.3761 0.9266 37.3397 -128.2294)" style="fill:#FFDB2D;" width="30.101" height="55.826"/>
</g>
<path style="fill:#FFD699;" d="M256.011,411.64c-85.818,0-155.635-69.817-155.635-155.635S170.193,100.37,256.011,100.37
	s155.635,69.817,155.635,155.635S341.829,411.64,256.011,411.64z"/>
<path style="fill:#FFC266;" d="M256.011,100.369c85.818,0,155.635,69.817,155.635,155.635S341.829,411.64,256.011,411.64"/>
<path style="fill:#FFE97F;" d="M256.011,381.539c-69.219,0-125.534-56.315-125.534-125.534s56.315-125.534,125.534-125.534
	s125.534,56.315,125.534,125.534S325.23,381.539,256.011,381.539z"/>
<path style="fill:#FFDB2D;" d="M256.011,130.47c69.219,0,125.534,56.315,125.534,125.534S325.23,381.539,256.011,381.539"/>
<g>
</g>
<g>
</g>
<g>
</g>
<g>
</g>
<g>
</g>
<g>
</g>
<g>
</g>
<g>
</g>
<g>
</g>
<g>
</g>
<g>
</g>
<g>
</g>
<g>
</g>
<g>
</g>
<g>
</g>
</svg>
